<svg id="visual" viewBox="0 0 400 600" width="400" height="600" xmlns="http://www.w3.org/2000/svg" xmlns:xlink="http://www.w3.org/1999/xlink" version="1.1"><rect x="0" y="0" width="400" height="600" fill="#F6DC42"></rect><defs><linearGradient id="grad1_0" x1="0%" y1="0%" x2="100%" y2="100%"><stop offset="30%" stop-color="#fbae3c" stop-opacity="1"></stop><stop offset="70%" stop-color="#fbae3c" stop-opacity="1"></stop></linearGradient></defs><defs><linearGradient id="grad1_1" x1="0%" y1="0%" x2="100%" y2="100%"><stop offset="30%" stop-color="#fbae3c" stop-opacity="1"></stop><stop offset="70%" stop-color="#f6dc42" stop-opacity="1"></stop></linearGradient></defs><defs><linearGradient id="grad2_0" x1="0%" y1="0%" x2="100%" y2="100%"><stop offset="30%" stop-color="#fbae3c" stop-opacity="1"></stop><stop offset="70%" stop-color="#fbae3c" stop-opacity="1"></stop></linearGradient></defs><defs><linearGradient id="grad2_1" x1="0%" y1="0%" x2="100%" y2="100%"><stop offset="30%" stop-color="#f6dc42" stop-opacity="1"></stop><stop offset="70%" stop-color="#fbae3c" stop-opacity="1"></stop></linearGradient></defs><g transform="translate(400, 0)"><path d="M0 180.3C-21.4 173.2 -42.8 166.2 -65.8 158.9C-88.9 151.6 -113.6 144 -127.5 127.5C-141.4 111 -144.5 85.5 -151.5 62.8C-158.5 40 -169.4 20 -180.3 0L0 0Z" fill="#fac53c"></path><path d="M0 90.1C-10.7 86.6 -21.4 83.1 -32.9 79.5C-44.4 75.8 -56.8 72 -63.7 63.7C-70.7 55.5 -72.3 42.7 -75.8 31.4C-79.3 20 -84.7 10 -90.1 0L0 0Z" fill="#fbae3c"></path></g><g transform="translate(0, 600)"><path d="M0 -180.3C21.3 -171.1 42.7 -162 63.5 -153.4C84.4 -144.7 104.8 -136.6 123 -123C141.3 -109.5 157.4 -90.4 166.6 -69C175.7 -47.6 178 -23.8 180.3 0L0 0Z" fill="#fac53c"></path><path d="M0 -90.1C10.7 -85.6 21.3 -81 31.8 -76.7C42.2 -72.4 52.4 -68.3 61.5 -61.5C70.6 -54.7 78.7 -45.2 83.3 -34.5C87.9 -23.8 89 -11.9 90.1 0L0 0Z" fill="#fbae3c"></path></g></svg>