<svg id="visual" class="mobile-menu-bgimage-svg" viewBox="0 0 768 740" width="768" height="740" xmlns="http://www.w3.org/2000/svg" xmlns:xlink="http://www.w3.org/1999/xlink" version="1.1"><rect x="0" y="0" width="768" height="740" fill="#F6DC42"></rect><defs><linearGradient id="grad1_0" x1="3.6%" y1="0%" x2="100%" y2="100%"><stop offset="29.243243243243242%" stop-color="#f6dc42" stop-opacity="1"></stop><stop offset="70.75675675675677%" stop-color="#f6dc42" stop-opacity="1"></stop></linearGradient></defs><defs><linearGradient id="grad2_0" x1="0%" y1="0%" x2="96.4%" y2="100%"><stop offset="29.243243243243242%" stop-color="#f6dc42" stop-opacity="1"></stop><stop offset="70.75675675675677%" stop-color="#f6dc42" stop-opacity="1"></stop></linearGradient></defs><g transform="translate(768, 0)"><path d="M0 240C-43.9 234.8 -87.8 229.7 -120 207.8C-152.1 186 -172.5 147.4 -190.5 110C-208.6 72.6 -224.3 36.3 -240 0L0 0Z" fill="#001220"></path></g><g transform="translate(0, 740)"><path d="M0 -240C25.6 -205.8 51.2 -171.6 90 -155.9C128.8 -140.2 180.6 -142.9 207.8 -120C235 -97.1 237.5 -48.5 240 0L0 0Z" fill="#001220"></path></g></svg>