<svg id="visual" viewBox="0 0 768 740" width="768" height="740" xmlns="http://www.w3.org/2000/svg" xmlns:xlink="http://www.w3.org/1999/xlink" version="1.1"><path d="M0 97L11.7 94.5C23.3 92 46.7 87 70 89.5C93.3 92 116.7 102 139.8 98.3C163 94.7 186 77.3 209.2 82.3C232.3 87.3 255.7 114.7 279 129.5C302.3 144.3 325.7 146.7 349 131.8C372.3 117 395.7 85 419 86.2C442.3 87.3 465.7 121.7 489 129C512.3 136.3 535.7 116.7 558.8 115.5C582 114.3 605 131.7 628.2 124.3C651.3 117 674.7 85 698 78.8C721.3 72.7 744.7 92.3 756.3 102.2L768 112L768 0L756.3 0C744.7 0 721.3 0 698 0C674.7 0 651.3 0 628.2 0C605 0 582 0 558.8 0C535.7 0 512.3 0 489 0C465.7 0 442.3 0 419 0C395.7 0 372.3 0 349 0C325.7 0 302.3 0 279 0C255.7 0 232.3 0 209.2 0C186 0 163 0 139.8 0C116.7 0 93.3 0 70 0C46.7 0 23.3 0 11.7 0L0 0Z" fill="#f9e782"></path><path d="M0 142L11.7 153C23.3 164 46.7 186 70 202C93.3 218 116.7 228 139.8 214.5C163 201 186 164 209.2 168.8C232.3 173.7 255.7 220.3 279 235.2C302.3 250 325.7 233 349 210.8C372.3 188.7 395.7 161.3 419 158.8C442.3 156.3 465.7 178.7 489 189.8C512.3 201 535.7 201 558.8 209.7C582 218.3 605 235.7 628.2 227C651.3 218.3 674.7 183.7 698 171.3C721.3 159 744.7 169 756.3 174L768 179L768 110L756.3 100.2C744.7 90.3 721.3 70.7 698 76.8C674.7 83 651.3 115 628.2 122.3C605 129.7 582 112.3 558.8 113.5C535.7 114.7 512.3 134.3 489 127C465.7 119.7 442.3 85.3 419 84.2C395.7 83 372.3 115 349 129.8C325.7 144.7 302.3 142.3 279 127.5C255.7 112.7 232.3 85.3 209.2 80.3C186 75.3 163 92.7 139.8 96.3C116.7 100 93.3 90 70 87.5C46.7 85 23.3 90 11.7 92.5L0 95Z" fill="#f8e264"></path><path d="M0 415L11.7 413.8C23.3 412.7 46.7 410.3 70 404.2C93.3 398 116.7 388 139.8 358.3C163 328.7 186 279.3 209.2 288C232.3 296.7 255.7 363.3 279 410.3C302.3 457.3 325.7 484.7 349 497C372.3 509.3 395.7 506.7 419 500.5C442.3 494.3 465.7 484.7 489 460C512.3 435.3 535.7 395.7 558.8 375.8C582 356 605 356 628.2 358.5C651.3 361 674.7 366 698 380.8C721.3 395.7 744.7 420.3 756.3 432.7L768 445L768 177L756.3 172C744.7 167 721.3 157 698 169.3C674.7 181.7 651.3 216.3 628.2 225C605 233.7 582 216.3 558.8 207.7C535.7 199 512.3 199 489 187.8C465.7 176.7 442.3 154.3 419 156.8C395.7 159.3 372.3 186.7 349 208.8C325.7 231 302.3 248 279 233.2C255.7 218.3 232.3 171.7 209.2 166.8C186 162 163 199 139.8 212.5C116.7 226 93.3 216 70 200C46.7 184 23.3 162 11.7 151L0 140Z" fill="#f6dc42"></path><path d="M0 593L11.7 590.5C23.3 588 46.7 583 70 562C93.3 541 116.7 504 139.8 478.2C163 452.3 186 437.7 209.2 452.5C232.3 467.3 255.7 511.7 279 537.5C302.3 563.3 325.7 570.7 349 578C372.3 585.3 395.7 592.7 419 598.8C442.3 605 465.7 610 489 600.2C512.3 590.3 535.7 565.7 558.8 532.3C582 499 605 457 628.2 441C651.3 425 674.7 435 698 462.2C721.3 489.3 744.7 533.7 756.3 555.8L768 578L768 443L756.3 430.7C744.7 418.3 721.3 393.7 698 378.8C674.7 364 651.3 359 628.2 356.5C605 354 582 354 558.8 373.8C535.7 393.7 512.3 433.3 489 458C465.7 482.7 442.3 492.3 419 498.5C395.7 504.7 372.3 507.3 349 495C325.7 482.7 302.3 455.3 279 408.3C255.7 361.3 232.3 294.7 209.2 286C186 277.3 163 326.7 139.8 356.3C116.7 386 93.3 396 70 402.2C46.7 408.3 23.3 410.7 11.7 411.8L0 413Z" fill="#d7c037"></path><path d="M0 741L11.7 741C23.3 741 46.7 741 70 741C93.3 741 116.7 741 139.8 741C163 741 186 741 209.2 741C232.3 741 255.7 741 279 741C302.3 741 325.7 741 349 741C372.3 741 395.7 741 419 741C442.3 741 465.7 741 489 741C512.3 741 535.7 741 558.8 741C582 741 605 741 628.2 741C651.3 741 674.7 741 698 741C721.3 741 744.7 741 756.3 741L768 741L768 576L756.3 553.8C744.7 531.7 721.3 487.3 698 460.2C674.7 433 651.3 423 628.2 439C605 455 582 497 558.8 530.3C535.7 563.7 512.3 588.3 489 598.2C465.7 608 442.3 603 419 596.8C395.7 590.7 372.3 583.3 349 576C325.7 568.7 302.3 561.3 279 535.5C255.7 509.7 232.3 465.3 209.2 450.5C186 435.7 163 450.3 139.8 476.2C116.7 502 93.3 539 70 560C46.7 581 23.3 586 11.7 588.5L0 591Z" fill="#b9a42c"></path></svg>