<svg width="1440" height="320" viewBox="0 0 1440 320" fill="none" xmlns="http://www.w3.org/2000/svg">
<g clip-path="url(#clip0_22_107)">
<path d="M0 160L60 170.7C120 181 240 203 360 192C480 181 600 139 720 128C840 117 960 139 1080 160C1200 181 1320 203 1380 213.3L1440 224V320H1380C1320 320 1200 320 1080 320C960 320 840 320 720 320C600 320 480 320 360 320C240 320 120 320 60 320H0V160Z" fill="#FFFFFF"/>
</g>
<defs>
<clipPath id="clip0_22_107">
<rect width="1440" height="320" fill="white"/>
</clipPath>
</defs>
</svg>
