<svg id="visual" viewBox="0 0 960 130" width="960" height="130" xmlns="http://www.w3.org/2000/svg" xmlns:xlink="http://www.w3.org/1999/xlink" version="1.1"><rect x="0" y="0" width="960" height="130" fill="#FFFFFF"></rect><path d="M0 52L8.8 51.5C17.7 51 35.3 50 53.2 45.2C71 40.3 89 31.7 106.8 29.2C124.7 26.7 142.3 30.3 160 31.2C177.7 32 195.3 30 213.2 31C231 32 249 36 266.8 35.5C284.7 35 302.3 30 320 29.8C337.7 29.7 355.3 34.3 373.2 35.8C391 37.3 409 35.7 426.8 37C444.7 38.3 462.3 42.7 480 42.5C497.7 42.3 515.3 37.7 533.2 37.7C551 37.7 569 42.3 586.8 43.3C604.7 44.3 622.3 41.7 640 39.3C657.7 37 675.3 35 693.2 32.3C711 29.7 729 26.3 746.8 28C764.7 29.7 782.3 36.3 800 39.2C817.7 42 835.3 41 853.2 38.2C871 35.3 889 30.7 906.8 29.8C924.7 29 942.3 32 951.2 33.5L960 35L960 131L951.2 131C942.3 131 924.7 131 906.8 131C889 131 871 131 853.2 131C835.3 131 817.7 131 800 131C782.3 131 764.7 131 746.8 131C729 131 711 131 693.2 131C675.3 131 657.7 131 640 131C622.3 131 604.7 131 586.8 131C569 131 551 131 533.2 131C515.3 131 497.7 131 480 131C462.3 131 444.7 131 426.8 131C409 131 391 131 373.2 131C355.3 131 337.7 131 320 131C302.3 131 284.7 131 266.8 131C249 131 231 131 213.2 131C195.3 131 177.7 131 160 131C142.3 131 124.7 131 106.8 131C89 131 71 131 53.2 131C35.3 131 17.7 131 8.8 131L0 131Z" fill="#f6dc42"></path><path d="M0 41L8.8 39.7C17.7 38.3 35.3 35.7 53.2 39C71 42.3 89 51.7 106.8 55.8C124.7 60 142.3 59 160 57.3C177.7 55.7 195.3 53.3 213.2 52.8C231 52.3 249 53.7 266.8 55C284.7 56.3 302.3 57.7 320 58.3C337.7 59 355.3 59 373.2 58.5C391 58 409 57 426.8 54.8C444.7 52.7 462.3 49.3 480 49.8C497.7 50.3 515.3 54.7 533.2 54.2C551 53.7 569 48.3 586.8 48.3C604.7 48.3 622.3 53.7 640 53.3C657.7 53 675.3 47 693.2 43.3C711 39.7 729 38.3 746.8 37.8C764.7 37.3 782.3 37.7 800 38.3C817.7 39 835.3 40 853.2 39.7C871 39.3 889 37.7 906.8 36.8C924.7 36 942.3 36 951.2 36L960 36L960 131L951.2 131C942.3 131 924.7 131 906.8 131C889 131 871 131 853.2 131C835.3 131 817.7 131 800 131C782.3 131 764.7 131 746.8 131C729 131 711 131 693.2 131C675.3 131 657.7 131 640 131C622.3 131 604.7 131 586.8 131C569 131 551 131 533.2 131C515.3 131 497.7 131 480 131C462.3 131 444.7 131 426.8 131C409 131 391 131 373.2 131C355.3 131 337.7 131 320 131C302.3 131 284.7 131 266.8 131C249 131 231 131 213.2 131C195.3 131 177.7 131 160 131C142.3 131 124.7 131 106.8 131C89 131 71 131 53.2 131C35.3 131 17.7 131 8.8 131L0 131Z" fill="#e1c731"></path><path d="M0 65L8.8 62.3C17.7 59.7 35.3 54.3 53.2 53.8C71 53.3 89 57.7 106.8 61C124.7 64.3 142.3 66.7 160 67.2C177.7 67.7 195.3 66.3 213.2 65.5C231 64.7 249 64.3 266.8 62.2C284.7 60 302.3 56 320 53C337.7 50 355.3 48 373.2 50.2C391 52.3 409 58.7 426.8 58.5C444.7 58.3 462.3 51.7 480 52C497.7 52.3 515.3 59.7 533.2 63C551 66.3 569 65.7 586.8 63.7C604.7 61.7 622.3 58.3 640 55.3C657.7 52.3 675.3 49.7 693.2 48C711 46.3 729 45.7 746.8 47.8C764.7 50 782.3 55 800 57C817.7 59 835.3 58 853.2 59.3C871 60.7 889 64.3 906.8 65.2C924.7 66 942.3 64 951.2 63L960 62L960 131L951.2 131C942.3 131 924.7 131 906.8 131C889 131 871 131 853.2 131C835.3 131 817.7 131 800 131C782.3 131 764.7 131 746.8 131C729 131 711 131 693.2 131C675.3 131 657.7 131 640 131C622.3 131 604.7 131 586.8 131C569 131 551 131 533.2 131C515.3 131 497.7 131 480 131C462.3 131 444.7 131 426.8 131C409 131 391 131 373.2 131C355.3 131 337.7 131 320 131C302.3 131 284.7 131 266.8 131C249 131 231 131 213.2 131C195.3 131 177.7 131 160 131C142.3 131 124.7 131 106.8 131C89 131 71 131 53.2 131C35.3 131 17.7 131 8.8 131L0 131Z" fill="#cdb220"></path><path d="M0 57L8.8 60.3C17.7 63.7 35.3 70.3 53.2 74C71 77.7 89 78.3 106.8 77.8C124.7 77.3 142.3 75.7 160 75.5C177.7 75.3 195.3 76.7 213.2 77.3C231 78 249 78 266.8 74.8C284.7 71.7 302.3 65.3 320 64.3C337.7 63.3 355.3 67.7 373.2 70.5C391 73.3 409 74.7 426.8 72.2C444.7 69.7 462.3 63.3 480 62.5C497.7 61.7 515.3 66.3 533.2 69.5C551 72.7 569 74.3 586.8 72.7C604.7 71 622.3 66 640 65.3C657.7 64.7 675.3 68.3 693.2 70.3C711 72.3 729 72.7 746.8 72.8C764.7 73 782.3 73 800 73.7C817.7 74.3 835.3 75.7 853.2 72.7C871 69.7 889 62.3 906.8 59.8C924.7 57.3 942.3 59.7 951.2 60.8L960 62L960 131L951.2 131C942.3 131 924.7 131 906.8 131C889 131 871 131 853.2 131C835.3 131 817.7 131 800 131C782.3 131 764.7 131 746.8 131C729 131 711 131 693.2 131C675.3 131 657.7 131 640 131C622.3 131 604.7 131 586.8 131C569 131 551 131 533.2 131C515.3 131 497.7 131 480 131C462.3 131 444.7 131 426.8 131C409 131 391 131 373.2 131C355.3 131 337.7 131 320 131C302.3 131 284.7 131 266.8 131C249 131 231 131 213.2 131C195.3 131 177.7 131 160 131C142.3 131 124.7 131 106.8 131C89 131 71 131 53.2 131C35.3 131 17.7 131 8.8 131L0 131Z" fill="#b89e08"></path><path d="M0 82L8.8 79.5C17.7 77 35.3 72 53.2 71.2C71 70.3 89 73.7 106.8 74.2C124.7 74.7 142.3 72.3 160 74.3C177.7 76.3 195.3 82.7 213.2 83.3C231 84 249 79 266.8 77.2C284.7 75.3 302.3 76.7 320 78.8C337.7 81 355.3 84 373.2 82.7C391 81.3 409 75.7 426.8 74.7C444.7 73.7 462.3 77.3 480 77.5C497.7 77.7 515.3 74.3 533.2 75.3C551 76.3 569 81.7 586.8 81.8C604.7 82 622.3 77 640 74.3C657.7 71.7 675.3 71.3 693.2 72.8C711 74.3 729 77.7 746.8 78C764.7 78.3 782.3 75.7 800 75.5C817.7 75.3 835.3 77.7 853.2 78.7C871 79.7 889 79.3 906.8 80.3C924.7 81.3 942.3 83.7 951.2 84.8L960 86L960 131L951.2 131C942.3 131 924.7 131 906.8 131C889 131 871 131 853.2 131C835.3 131 817.7 131 800 131C782.3 131 764.7 131 746.8 131C729 131 711 131 693.2 131C675.3 131 657.7 131 640 131C622.3 131 604.7 131 586.8 131C569 131 551 131 533.2 131C515.3 131 497.7 131 480 131C462.3 131 444.7 131 426.8 131C409 131 391 131 373.2 131C355.3 131 337.7 131 320 131C302.3 131 284.7 131 266.8 131C249 131 231 131 213.2 131C195.3 131 177.7 131 160 131C142.3 131 124.7 131 106.8 131C89 131 71 131 53.2 131C35.3 131 17.7 131 8.8 131L0 131Z" fill="#b49a02"></path><path d="M0 82L8.8 83.5C17.7 85 35.3 88 53.2 90.5C71 93 89 95 106.8 94.5C124.7 94 142.3 91 160 88.8C177.7 86.7 195.3 85.3 213.2 84.8C231 84.3 249 84.7 266.8 85C284.7 85.3 302.3 85.7 320 85.8C337.7 86 355.3 86 373.2 84.8C391 83.7 409 81.3 426.8 82.5C444.7 83.7 462.3 88.3 480 88.8C497.7 89.3 515.3 85.7 533.2 83.8C551 82 569 82 586.8 83C604.7 84 622.3 86 640 87.7C657.7 89.3 675.3 90.7 693.2 91.7C711 92.7 729 93.3 746.8 91.2C764.7 89 782.3 84 800 84.5C817.7 85 835.3 91 853.2 93.8C871 96.7 889 96.3 906.8 96.2C924.7 96 942.3 96 951.2 96L960 96L960 131L951.2 131C942.3 131 924.7 131 906.8 131C889 131 871 131 853.2 131C835.3 131 817.7 131 800 131C782.3 131 764.7 131 746.8 131C729 131 711 131 693.2 131C675.3 131 657.7 131 640 131C622.3 131 604.7 131 586.8 131C569 131 551 131 533.2 131C515.3 131 497.7 131 480 131C462.3 131 444.7 131 426.8 131C409 131 391 131 373.2 131C355.3 131 337.7 131 320 131C302.3 131 284.7 131 266.8 131C249 131 231 131 213.2 131C195.3 131 177.7 131 160 131C142.3 131 124.7 131 106.8 131C89 131 71 131 53.2 131C35.3 131 17.7 131 8.8 131L0 131Z" fill="#b89e08"></path><path d="M0 97L8.8 97.5C17.7 98 35.3 99 53.2 99.2C71 99.3 89 98.7 106.8 98.7C124.7 98.7 142.3 99.3 160 100.5C177.7 101.7 195.3 103.3 213.2 103.3C231 103.3 249 101.7 266.8 100.7C284.7 99.7 302.3 99.3 320 97.7C337.7 96 355.3 93 373.2 92.8C391 92.7 409 95.3 426.8 95.2C444.7 95 462.3 92 480 92.3C497.7 92.7 515.3 96.3 533.2 96.5C551 96.7 569 93.3 586.8 94.3C604.7 95.3 622.3 100.7 640 102.5C657.7 104.3 675.3 102.7 693.2 102C711 101.3 729 101.7 746.8 102.5C764.7 103.3 782.3 104.7 800 105.2C817.7 105.7 835.3 105.3 853.2 103.2C871 101 889 97 906.8 96C924.7 95 942.3 97 951.2 98L960 99L960 131L951.2 131C942.3 131 924.7 131 906.8 131C889 131 871 131 853.2 131C835.3 131 817.7 131 800 131C782.3 131 764.7 131 746.8 131C729 131 711 131 693.2 131C675.3 131 657.7 131 640 131C622.3 131 604.7 131 586.8 131C569 131 551 131 533.2 131C515.3 131 497.7 131 480 131C462.3 131 444.7 131 426.8 131C409 131 391 131 373.2 131C355.3 131 337.7 131 320 131C302.3 131 284.7 131 266.8 131C249 131 231 131 213.2 131C195.3 131 177.7 131 160 131C142.3 131 124.7 131 106.8 131C89 131 71 131 53.2 131C35.3 131 17.7 131 8.8 131L0 131Z" fill="#cdb220"></path><path d="M0 103L8.8 105C17.7 107 35.3 111 53.2 110.8C71 110.7 89 106.3 106.8 104.3C124.7 102.3 142.3 102.7 160 104.2C177.7 105.7 195.3 108.3 213.2 108.7C231 109 249 107 266.8 107.5C284.7 108 302.3 111 320 111.8C337.7 112.7 355.3 111.3 373.2 109.5C391 107.7 409 105.3 426.8 105.3C444.7 105.3 462.3 107.7 480 108C497.7 108.3 515.3 106.7 533.2 105.2C551 103.7 569 102.3 586.8 101.8C604.7 101.3 622.3 101.7 640 102.7C657.7 103.7 675.3 105.3 693.2 106.5C711 107.7 729 108.3 746.8 108.7C764.7 109 782.3 109 800 107.7C817.7 106.3 835.3 103.7 853.2 104.2C871 104.7 889 108.3 906.8 110.2C924.7 112 942.3 112 951.2 112L960 112L960 131L951.2 131C942.3 131 924.7 131 906.8 131C889 131 871 131 853.2 131C835.3 131 817.7 131 800 131C782.3 131 764.7 131 746.8 131C729 131 711 131 693.2 131C675.3 131 657.7 131 640 131C622.3 131 604.7 131 586.8 131C569 131 551 131 533.2 131C515.3 131 497.7 131 480 131C462.3 131 444.7 131 426.8 131C409 131 391 131 373.2 131C355.3 131 337.7 131 320 131C302.3 131 284.7 131 266.8 131C249 131 231 131 213.2 131C195.3 131 177.7 131 160 131C142.3 131 124.7 131 106.8 131C89 131 71 131 53.2 131C35.3 131 17.7 131 8.8 131L0 131Z" fill="#e1c731"></path><path d="M0 122L8.8 121.7C17.7 121.3 35.3 120.7 53.2 120C71 119.3 89 118.7 106.8 118.8C124.7 119 142.3 120 160 119.5C177.7 119 195.3 117 213.2 115.5C231 114 249 113 266.8 112.3C284.7 111.7 302.3 111.3 320 112.5C337.7 113.7 355.3 116.3 373.2 116.7C391 117 409 115 426.8 114C444.7 113 462.3 113 480 113C497.7 113 515.3 113 533.2 112.8C551 112.7 569 112.3 586.8 113.7C604.7 115 622.3 118 640 119.8C657.7 121.7 675.3 122.3 693.2 121.3C711 120.3 729 117.7 746.8 116C764.7 114.3 782.3 113.7 800 113.8C817.7 114 835.3 115 853.2 114.8C871 114.7 889 113.3 906.8 114.7C924.7 116 942.3 120 951.2 122L960 124L960 131L951.2 131C942.3 131 924.7 131 906.8 131C889 131 871 131 853.2 131C835.3 131 817.7 131 800 131C782.3 131 764.7 131 746.8 131C729 131 711 131 693.2 131C675.3 131 657.7 131 640 131C622.3 131 604.7 131 586.8 131C569 131 551 131 533.2 131C515.3 131 497.7 131 480 131C462.3 131 444.7 131 426.8 131C409 131 391 131 373.2 131C355.3 131 337.7 131 320 131C302.3 131 284.7 131 266.8 131C249 131 231 131 213.2 131C195.3 131 177.7 131 160 131C142.3 131 124.7 131 106.8 131C89 131 71 131 53.2 131C35.3 131 17.7 131 8.8 131L0 131Z" fill="#f6dc42"></path></svg>