<svg width="1600" height="1200" viewBox="0 0 1600 1200" fill="none" xmlns="http://www.w3.org/2000/svg">
<rect width="1600" height="1200" fill="white"/>
<rect width="1600" height="1200" fill="white"/>
<mask id="mask0_0_8595" style="mask-type:alpha" maskUnits="userSpaceOnUse" x="0" y="0" width="1600" height="1200">
<rect width="1600" height="1200" fill="white"/>
</mask>
<g mask="url(#mask0_0_8595)">
<rect x="789.793" y="766.482" width="1286" height="1355" transform="rotate(43 789.793 766.482)" fill="#F83C1E"/>
<path d="M306 366.565C162.958 366.565 47 250.607 47 107.565C47 -29.4843 153.76 -142.589 289.924 -150.943C306.461 -151.957 320.69 -139.373 321.704 -122.836C322.719 -106.299 310.135 -92.0699 293.598 -91.0553C189.038 -84.6407 107 2.2731 107 107.565C107 217.47 196.095 306.565 306 306.565C322.569 306.565 336 319.997 336 336.565C336 353.134 322.569 366.565 306 366.565Z" fill="#423783"/>
<rect x="1294.76" y="-528.369" width="1658" height="1355" transform="rotate(43 1294.76 -528.369)" fill="#2C99B0"/>
<path fill-rule="evenodd" clip-rule="evenodd" d="M334.601 843.929C341.72 859.803 360.359 866.9 376.233 859.781C476.381 814.868 564.312 746.379 632.533 660.704C653.541 667.164 675.552 670.5 698 670.5C820.883 670.5 920.5 570.883 920.5 448C920.5 390.452 898.454 336.732 860.865 296.372C1020.26 239.03 1131.5 86.5353 1131.5 -89C1131.5 -315.161 948.161 -498.5 722 -498.5C606.871 -498.5 499.513 -450.661 422.883 -368.686C323.495 -422.709 211.822 -451.5 96 -451.5C-282.595 -451.5 -589.5 -144.588 -589.5 234.021C-589.5 243.01 -589.326 251.978 -588.981 260.923C-588.309 278.307 -573.671 291.855 -556.287 291.183C-538.903 290.511 -525.356 275.874 -526.028 258.49C-526.342 250.355 -526.5 242.197 -526.5 234.02C-526.5 -109.794 -247.8 -388.5 96 -388.5C209.215 -388.5 317.926 -358.262 413.134 -301.779C415.696 -300.199 418.421 -299.026 421.222 -298.252C425.8 -296.98 430.536 -296.789 435.083 -297.589C439.635 -298.387 444.027 -300.182 447.901 -302.942C450.262 -304.62 452.417 -306.644 454.282 -308.993C519.729 -388.539 616.988 -435.5 722 -435.5C913.367 -435.5 1068.5 -280.367 1068.5 -89C1068.5 78.0759 949.37 220.515 787.213 251.379C758.506 256.842 752.066 295.056 777.395 309.628C826.57 337.916 857.5 390.244 857.5 448C857.5 536.089 786.089 607.5 698 607.5C675.745 607.5 654.185 602.958 634.278 594.271C620.832 588.403 605.115 592.595 596.376 604.38C532.736 690.209 447.947 758.574 350.453 802.297C334.58 809.416 327.482 828.055 334.601 843.929ZM454.282 -308.993C455.16 -310.098 455.974 -311.276 456.715 -312.523C465.603 -327.478 460.684 -346.807 445.729 -355.695C438.189 -360.175 430.573 -364.506 422.883 -368.686C416.82 -362.201 410.951 -355.502 405.284 -348.597C394.249 -335.148 396.205 -315.299 409.654 -304.264C410.773 -303.346 411.936 -302.518 413.134 -301.779C413.27 -301.699 413.407 -301.618 413.543 -301.536C416.006 -300.073 418.588 -298.983 421.222 -298.252C425.762 -296.997 430.504 -296.788 435.083 -297.589C439.666 -298.396 444.057 -300.211 447.901 -302.942C450.123 -304.525 452.174 -306.424 453.987 -308.634C454.085 -308.754 454.184 -308.873 454.282 -308.993Z" fill="#D0E215"/>
<path fill-rule="evenodd" clip-rule="evenodd" d="M2206.31 -51C2206.31 326.763 1900.08 633 1522.31 633C1538.88 633 1552.31 619.568 1552.31 603C1552.31 586.431 1538.88 573 1522.31 573C1866.94 573 2146.31 293.626 2146.31 -51C2146.31 -395.626 1866.94 -675 1522.31 -675C1422.05 -675 1325.24 -651.353 1238.02 -606.63C1223.28 -599.071 1205.2 -604.895 1197.64 -619.638C1190.08 -634.381 1195.9 -652.462 1210.64 -660.021C1306.29 -709.063 1412.47 -735 1522.31 -735C1900.08 -735 2206.31 -428.763 2206.31 -51ZM1522.31 573C1505.75 573 1492.31 586.431 1492.31 603C1492.31 619.569 1505.75 633 1522.31 633C1354.98 633 1196.92 572.66 1073.3 464.998C1060.8 454.116 1059.5 435.166 1070.38 422.672C1081.26 410.177 1100.21 408.87 1112.7 419.751C1225.5 517.988 1369.61 573 1522.31 573Z" fill="#E95272"/>
<rect x="1106.19" y="732.831" width="1286" height="494" transform="rotate(43 1106.19 732.831)" fill="#F6B800"/>
<path d="M21 949C159.071 949 271 837.071 271 699C271 560.929 159.071 449 21 449C-117.071 449 -229 560.929 -229 699C-229 837.071 -117.071 949 21 949Z" fill="#423783"/>
<path d="M364 858C379.464 858 392 845.464 392 830C392 814.536 379.464 802 364 802C348.536 802 336 814.536 336 830C336 845.464 348.536 858 364 858Z" fill="#2C99B0"/>
<path fill-rule="evenodd" clip-rule="evenodd" d="M1667.04 1.95885C1680.32 15.2367 1680.32 36.7643 1667.04 50.0421C1653.76 63.3199 1632.24 63.3199 1618.96 50.0421C1605.68 36.7643 1605.68 15.2367 1618.96 1.95885C1632.24 -11.319 1653.76 -11.319 1667.04 1.95885ZM1443.13 226.137C1456.4 239.414 1456.4 260.942 1443.13 274.22C1429.85 287.498 1408.32 287.498 1395.04 274.22C1381.76 260.942 1381.76 239.414 1395.04 226.137C1408.32 212.859 1429.85 212.859 1443.13 226.137ZM1354.85 330.081C1368.12 343.359 1368.12 364.887 1354.85 378.164C1341.57 391.442 1320.04 391.442 1306.76 378.164C1293.48 364.887 1293.48 343.359 1306.76 330.081C1320.04 316.803 1341.57 316.803 1354.85 330.081ZM1551.31 166.032C1564.59 152.755 1564.59 131.227 1551.31 117.949C1538.04 104.671 1516.51 104.671 1503.23 117.949C1489.95 131.227 1489.95 152.755 1503.23 166.032C1516.51 179.31 1538.04 179.31 1551.31 166.032ZM1431.92 455.239C1438.56 448.6 1438.56 437.836 1431.92 431.197C1425.28 424.559 1414.52 424.559 1407.88 431.197C1401.24 437.836 1401.24 448.6 1407.88 455.239C1414.52 461.878 1425.28 461.878 1431.92 455.239ZM1538.69 324.424C1545.33 331.063 1545.33 341.827 1538.69 348.466C1532.05 355.105 1521.29 355.105 1514.65 348.466C1508.01 341.827 1508.01 331.063 1514.65 324.424C1521.29 317.785 1532.05 317.785 1538.69 324.424ZM1645.47 241.693C1652.11 235.054 1652.11 224.29 1645.47 217.651C1638.83 211.012 1628.06 211.012 1621.42 217.651C1614.79 224.29 1614.79 235.054 1621.42 241.693C1628.06 248.332 1638.83 248.332 1645.47 241.693ZM1752.02 110.98C1758.66 117.619 1758.66 128.382 1752.02 135.021C1745.38 141.66 1734.62 141.66 1727.98 135.021C1721.34 128.382 1721.34 117.619 1727.98 110.98C1734.62 104.341 1745.38 104.341 1752.02 110.98Z" fill="#FFEAAB"/>
</g>
</svg>
